<svg width="21" height="18" viewBox="0 0 21 18" fill="currentColor" xmlns="http://www.w3.org/2000/svg">
<path d="M14.4874 7.40825C14.0974 7.79825 13.4474 7.79825 13.0574 7.40825L8.58736 2.94825L1.53736 9.98825L0.87736 9.35825C0.315558 8.79574 0 8.03325 0 7.23825C0 6.44324 0.315558 5.68075 0.87736 5.11825L5.11736 0.878246C5.67986 0.316444 6.44236 0.00088588 7.23736 0.00088588C8.03236 0.00088588 8.79486 0.316444 9.35736 0.878246L14.4874 5.99825C14.8774 6.38825 14.8774 7.01825 14.4874 7.40825ZM15.1874 5.28825C15.9674 6.06825 15.9674 7.33825 15.1874 8.11825C13.9174 9.38825 12.5774 8.33825 12.3574 8.11825L8.59736 4.35825L3.02736 9.92825C2.93466 10.0208 2.86111 10.1306 2.81093 10.2516C2.76075 10.3726 2.73492 10.5023 2.73492 10.6332C2.73492 10.7642 2.76075 10.8939 2.81093 11.0149C2.86111 11.1358 2.93466 11.2457 3.02736 11.3382C3.41736 11.7282 4.04736 11.7282 4.44736 11.3382L9.06736 6.71825L9.77736 7.42825L5.15736 12.0482C5.06466 12.1408 4.99111 12.2506 4.94093 12.3716C4.89075 12.4926 4.86492 12.6223 4.86492 12.7532C4.86492 12.8842 4.89075 13.0139 4.94093 13.1349C4.99111 13.2558 5.06466 13.3657 5.15736 13.4582C5.54736 13.8482 6.17736 13.8482 6.57736 13.4582L11.1974 8.83825L11.9074 9.54825L7.28736 14.1682C7.19478 14.2608 7.12134 14.3707 7.07123 14.4917C7.02113 14.6127 6.99534 14.7423 6.99534 14.8732C6.99534 15.0042 7.02113 15.1338 7.07123 15.2548C7.12134 15.3758 7.19478 15.4857 7.28736 15.5782C7.37994 15.6708 7.48985 15.7443 7.61082 15.7944C7.73178 15.8445 7.86143 15.8703 7.99236 15.8703C8.12329 15.8703 8.25294 15.8445 8.3739 15.7944C8.49487 15.7443 8.60478 15.6708 8.69736 15.5782L13.3174 10.9582L14.0274 11.6682L9.40736 16.2882C9.31478 16.3808 9.24134 16.4907 9.19123 16.6117C9.14113 16.7327 9.11534 16.8623 9.11534 16.9932C9.11534 17.1242 9.14113 17.2538 9.19123 17.3748C9.24134 17.4958 9.31478 17.6057 9.40736 17.6982C9.59434 17.8852 9.84793 17.9903 10.1124 17.9903C10.2433 17.9903 10.3729 17.9645 10.4939 17.9144C10.6149 17.8643 10.7248 17.7908 10.8174 17.6982L19.1374 9.35825C19.6992 8.79574 20.0147 8.03325 20.0147 7.23825C20.0147 6.44324 19.6992 5.68075 19.1374 5.11825L14.8974 0.878246C14.3453 0.326443 13.6 0.011512 12.8195 0.000309384C12.0391 -0.0108932 11.285 0.282515 10.7174 0.818246L15.1874 5.28825Z" />
</svg>
