<svg width="12" height="15" viewBox="0 0 12 15" fill="currentColor" xmlns="http://www.w3.org/2000/svg">
<path d="M10.1678 0.300646C9.54259 0.710896 9.65684 1.5559 9.65684 1.5559L9.67959 1.5659C9.10259 1.85615 8.57334 2.23215 8.09634 2.65915C8.00059 2.7454 7.90909 2.83565 7.81759 2.9259C7.92809 2.77015 8.01359 2.5719 7.99084 2.34065C7.93384 1.7619 7.21634 1.1274 7.21634 1.1274C7.21634 1.1274 6.63359 1.8739 6.69034 2.4524C6.74684 3.03115 7.42859 3.2959 7.42859 3.2959C7.42859 3.2959 7.47159 3.26965 7.53334 3.22065C7.32028 3.45233 7.11886 3.69446 6.92984 3.94615C6.95109 3.8429 6.95559 3.7319 6.93134 3.6149C6.80784 3.0179 5.98959 2.4284 5.98959 2.4284C5.98959 2.4284 5.46709 3.2624 5.59059 3.85865C5.70409 4.40565 6.33184 4.62565 6.43634 4.6589C6.24863 4.9575 6.0734 5.26376 5.91109 5.5769C5.92093 5.44184 5.90016 5.30631 5.85034 5.1804C5.66209 4.71065 5.04909 4.31315 4.75809 4.14565C5.08959 3.94015 5.35059 3.5984 5.35059 3.5984C5.35059 3.5984 4.68034 3.2609 4.21509 3.36315C3.74984 3.4654 3.60709 3.9819 3.60709 3.9819C3.60709 3.9819 3.97959 4.3844 4.44484 4.28215C4.47534 4.27565 4.50484 4.26215 4.53434 4.2519C4.51609 4.30865 4.49634 4.37565 4.47634 4.45065C4.24009 4.38515 3.79734 4.2919 3.48284 4.4019C3.27484 4.4749 3.15009 4.62765 3.07359 4.77115C3.32709 4.23965 3.64759 3.73565 4.04859 3.28065C4.16659 3.29965 4.75034 3.3704 5.08759 2.99115C5.46484 2.5679 5.43834 1.68965 5.43834 1.68965C5.43834 1.68965 4.51259 1.8229 4.13559 2.2464C3.75859 2.6699 4.02584 3.27715 4.02584 3.27715L4.04509 3.2804C3.67834 3.6054 3.36559 3.98565 3.10234 4.39365C3.04834 4.4784 2.99784 4.5649 2.94859 4.65165C2.99909 4.5134 3.02334 4.34765 2.95509 4.1764C2.78834 3.75665 2.11734 3.4209 2.11734 3.4209C2.11734 3.4209 1.84484 4.08665 2.01209 4.5064C2.17909 4.92615 2.74284 4.9939 2.74284 4.9939C2.74284 4.9939 2.77009 4.96465 2.80609 4.91565C2.69509 5.13231 2.59609 5.35365 2.50909 5.57965C2.50495 5.4909 2.48194 5.40405 2.44159 5.3249C2.22134 4.9044 1.48609 4.6209 1.48609 4.6209C1.48609 4.6209 1.27659 5.34015 1.49709 5.7609C1.70309 6.1544 2.23109 6.19215 2.29884 6.19515C2.22287 6.45517 2.15806 6.71833 2.10459 6.9839C2.08414 6.87876 2.03984 6.77972 1.97509 6.6944C1.65484 6.27815 0.804589 6.09765 0.804589 6.09765C0.804589 6.09765 0.719589 6.9109 1.03934 7.32715C1.33859 7.7159 1.91984 7.66665 1.99609 7.6584C1.95487 7.96196 1.9246 8.2669 1.90534 8.57265C1.90309 8.6179 1.90384 8.66265 1.90184 8.70765C1.87353 8.55334 1.7995 8.4111 1.68934 8.2994C1.29534 7.9009 0.377339 7.8149 0.377339 7.8149C0.377339 7.8149 0.400089 8.67965 0.794089 9.07815C1.18809 9.47665 1.85409 9.30765 1.85409 9.30765C1.85409 9.30765 1.87234 9.25765 1.88984 9.1784C1.88734 9.4604 1.89059 9.74215 1.90384 10.0231C1.93059 10.5061 1.97209 10.9874 2.04134 11.4659C2.1077 11.9441 2.19411 12.4194 2.30034 12.8904C2.32217 12.9831 2.34451 13.0754 2.36734 13.1674C2.14926 12.9113 1.9436 12.6449 1.75109 12.3691C1.32809 11.7539 0.978089 11.0991 0.731089 10.4111C0.482985 9.72473 0.339956 9.00478 0.306839 8.27565C0.273839 7.54565 0.353339 6.80965 0.501089 6.07465C0.196865 6.77054 0.0281025 7.51805 0.00383924 8.27715C-0.0241608 9.0369 0.101589 9.80465 0.361589 10.5279C0.621839 11.2519 1.01284 11.9306 1.50234 12.5331C1.74681 12.836 2.01418 13.1195 2.30209 13.3814C2.35309 13.4264 2.40459 13.4708 2.45659 13.5146C2.52634 13.7744 2.60234 14.0319 2.69159 14.2864C2.64571 14.0598 2.60304 13.8325 2.56359 13.6046C2.77684 13.7801 2.99884 13.9446 3.23934 14.0849C3.07513 13.9336 2.9166 13.7762 2.76409 13.6131C2.83885 13.3181 2.93348 13.0284 3.04734 12.7461C3.15831 12.4654 3.28733 12.192 3.43359 11.9279C3.66475 11.5138 3.94539 11.1294 4.26934 10.7831C4.24784 10.9139 4.22184 11.0439 4.20359 11.1749C4.12817 11.6985 4.07189 12.2247 4.03484 12.7524C3.90034 13.1481 3.78584 13.5514 3.73934 13.9631C3.81484 13.7236 3.90334 13.4896 4.00084 13.2594C3.97584 13.8106 3.96434 14.3629 3.99559 14.9136C4.04676 14.2923 4.11584 13.6737 4.20284 13.0579C4.21884 12.9389 4.23884 12.8206 4.25634 12.7019C4.44962 12.3072 4.66359 11.923 4.89734 11.5509C5.37873 10.792 5.93538 10.0836 6.55884 9.4364C6.60484 9.38865 6.65384 9.3434 6.69984 9.29615C7.09309 9.1699 7.49984 9.0704 7.91684 8.99015C7.59939 8.97666 7.28136 8.99072 6.96634 9.03215C7.48581 8.53512 8.03923 8.07485 8.62259 7.65465C9.36734 7.1179 10.1636 6.6409 10.9888 6.1949C10.0961 6.50455 9.24243 6.91707 8.44509 7.42415C7.66103 7.91743 6.93874 8.50267 6.29359 9.1674C6.18484 9.19615 6.07609 9.22365 5.96909 9.2594C5.55859 9.39639 5.16873 9.58883 4.81034 9.8314C4.84534 9.6889 4.87634 9.54565 4.91434 9.4039C4.98884 9.11556 5.06876 8.82856 5.15409 8.5429C5.31384 8.6339 5.94109 8.95215 6.51684 8.6694C7.18259 8.34165 7.61009 7.29415 7.61009 7.29415C7.61009 7.29415 6.44784 7.0269 5.78184 7.35365C5.66152 7.41254 5.55357 7.49393 5.46384 7.5934C5.58766 7.23717 5.72366 6.8853 5.87159 6.5384C5.93034 6.58565 6.53059 7.0489 7.16184 6.82615C7.82659 6.59165 8.35609 5.65515 8.35609 5.65515C8.35609 5.65515 7.29984 5.2784 6.63509 5.5129C6.46118 5.57463 6.307 5.68185 6.18859 5.8234C6.35973 5.46227 6.54743 5.10923 6.75109 4.7654C6.73284 4.80865 6.72459 4.8349 6.72459 4.8349C6.72459 4.8349 7.20734 5.39915 7.84384 5.2834C8.47984 5.16765 9.10909 4.40065 9.10909 4.40065C9.10909 4.40065 8.21934 3.91065 7.58334 4.0264C7.31184 4.0759 7.11659 4.23015 6.98084 4.3909C7.00784 4.3479 7.03359 4.30465 7.06109 4.26215C7.28328 3.9238 7.52485 3.5986 7.78459 3.28815C7.70709 3.3979 7.66959 3.4829 7.66959 3.4829C7.66959 3.4829 8.07109 4.0629 8.68859 4.00965C9.30559 3.95665 9.98234 3.2834 9.98234 3.2834C9.98234 3.2834 9.18609 2.7369 8.56859 2.7904C8.30409 2.8134 8.10159 2.94415 7.95609 3.08615C8.45759 2.51615 9.03084 1.9994 9.68359 1.5669C9.82409 1.6279 10.5291 1.90315 11.0898 1.5354C11.7153 1.12615 12.0008 0.0191458 12.0008 0.0191458C12.0008 0.0191458 10.7938 -0.109604 10.1678 0.300646ZM3.50884 7.7884C3.54009 7.84465 3.57709 7.8939 3.61659 7.9404C3.35159 7.9604 2.72309 8.03715 2.39309 8.32415C2.30984 8.3964 2.25059 8.47865 2.20809 8.56365C2.22259 8.2749 2.25009 7.9874 2.28434 7.70065C2.31234 7.7134 2.87334 7.96315 3.30634 7.67015C3.34659 7.64315 3.38409 7.61065 3.41984 7.5764C3.44384 7.65065 3.47209 7.7224 3.50884 7.7884ZM3.35759 6.5784C3.10734 6.6024 2.82809 6.6604 2.63159 6.79315C2.51746 6.87072 2.4267 6.978 2.36909 7.1034C2.41634 6.8139 2.48059 6.52765 2.55409 6.2439C2.55234 6.2609 2.55184 6.2719 2.55184 6.2719C2.55184 6.2719 2.96134 6.54615 3.37709 6.42665C3.36962 6.4771 3.36312 6.52769 3.35759 6.5784ZM5.88459 9.61815C5.40234 10.1751 4.97709 10.7754 4.63059 11.4136C4.54222 11.5774 4.45909 11.7439 4.38134 11.9129C4.42084 11.6814 4.46059 11.4501 4.50459 11.2199C4.55942 10.9452 4.61667 10.6714 4.67634 10.3984C5.04267 10.0858 5.44899 9.82345 5.88459 9.61815ZM4.26934 10.2499C3.79471 10.6859 3.41646 11.2164 3.15884 11.8071C3.03205 12.0934 2.93342 12.3913 2.86434 12.6966C2.79984 12.9989 2.75434 13.3061 2.76484 13.6126C2.68234 13.5251 2.60176 13.4366 2.52309 13.3469C2.49709 13.1869 2.46984 13.0271 2.44684 12.8666C2.37715 12.3934 2.32004 11.9184 2.27559 11.4421C2.23459 10.9659 2.19934 10.4899 2.18909 10.0136C2.18263 9.78521 2.1803 9.55667 2.18209 9.32815C2.32009 9.36565 2.85534 9.48315 3.22309 9.16365C3.55234 8.87715 3.68134 8.2974 3.72284 8.05065C4.13209 8.4119 4.75209 8.41415 4.75209 8.41415C4.75209 8.41415 4.79309 8.3574 4.84359 8.26415C4.7375 8.61523 4.64121 8.9692 4.55484 9.32565C4.49084 9.60315 4.43234 9.88215 4.37734 10.1611C4.34209 10.1914 4.30359 10.2184 4.26934 10.2499ZM5.02959 7.67765C5.04559 7.49365 5.02034 7.2934 4.91184 7.0994C4.67909 6.6834 4.10684 6.36765 3.74984 6.20265C4.04559 5.92015 4.23209 5.49765 4.23209 5.49765C4.23209 5.49765 3.46459 5.3009 3.01684 5.5079C2.82484 5.59615 2.71509 5.74815 2.64884 5.8939C2.65984 5.8569 2.66759 5.81915 2.67884 5.78265C2.7717 5.4888 2.88147 5.20057 3.00759 4.9194C2.97359 5.0164 2.96334 5.08765 2.96334 5.08765C2.96334 5.08765 3.38734 5.4429 3.83459 5.2864C4.05334 5.21015 4.25009 5.0214 4.39459 4.8479C4.35484 5.1249 4.35109 5.42815 4.45009 5.6744C4.68109 6.2499 5.41159 6.37715 5.52334 6.3934C5.36333 6.76026 5.21632 7.13266 5.08259 7.5099C5.06359 7.5649 5.04809 7.6219 5.02959 7.67765Z"/>
</svg>
